<?xml version="1.0" standalone="no"?><!DOCTYPE svg PUBLIC "-//W3C//DTD SVG 1.1//EN" "http://www.w3.org/Graphics/SVG/1.1/DTD/svg11.dtd"><svg t="1494178549403" class="icon" style="" viewBox="0 0 1024 1024" version="1.1" xmlns="http://www.w3.org/2000/svg" p-id="7074" xmlns:xlink="http://www.w3.org/1999/xlink" width="200" height="200"><defs><style type="text/css"></style></defs><path d="M911.36 913.066667c-6.826667-6.826667-15.36-10.24-23.893333-10.24H544.426667c-10.24 0-17.066667-3.413333-23.893334-10.24-6.826667-6.826667-10.24-15.36-10.24-23.893334V500.053333h266.24c13.653333 0 25.6-6.826667 32.426667-18.773333 6.826667-11.946667 5.12-25.6-3.413333-37.546667L486.4 47.786667c-8.533333-8.533333-17.066667-13.653333-29.013333-13.653334s-20.48 5.12-27.306667 13.653334L110.933333 443.733333c-8.533333 10.24-10.24 23.893333-3.413333 37.546667 6.826667 11.946667 18.773333 18.773333 32.426667 18.773333H409.6V938.666667c0 13.653333 5.12 25.6 15.36 35.84 10.24 10.24 22.186667 15.36 35.84 15.36h426.666667c18.773333 0 34.133333-15.36 34.133333-34.133334v-18.773333c0-8.533333-3.413333-17.066667-10.24-23.893333z" fill="#8a8a8a" p-id="7075"></path></svg>